<svg width="1200" height="630" viewBox="0 0 1200 630" fill="none" xmlns="http://www.w3.org/2000/svg">
  <rect width="1200" height="630" fill="#0A0E17"/>
  <defs>
    <linearGradient id="paint0_linear" x1="0" y1="0" x2="1200" y2="630" gradientUnits="userSpaceOnUse">
      <stop stop-color="#00D4FF" stop-opacity="0.1"/>
      <stop offset="1" stop-color="#00FF88" stop-opacity="0.1"/>
    </linearGradient>
  </defs>
  <rect width="1200" height="630" fill="url(#paint0_linear)"/>
  <path d="M0 0H1200V630H0V0Z" fill="url(#paint0_linear)"/>

  <!-- Logo Icon -->
  <rect x="100" y="150" width="120" height="120" rx="24" fill="url(#logo_grad)"/>
  <defs>
    <linearGradient id="logo_grad" x1="100" y1="150" x2="220" y2="270" gradientUnits="userSpaceOnUse">
      <stop stop-color="#00D4FF"/>
      <stop offset="1" stop-color="#00FF88"/>
    </linearGradient>
  </defs>
  <text x="160" y="228" font-family="Outfit, sans-serif" font-size="64" font-weight="bold" fill="#0A0E17" text-anchor="middle">🔐</text>

  <!-- Title -->
  <text x="260" y="210" font-family="Outfit, sans-serif" font-size="84" font-weight="800" fill="white">Cairo <tspan fill="#00D4FF">Security</tspan></text>
  <text x="260" y="300" font-family="Outfit, sans-serif" font-size="64" font-weight="500" fill="#8B949E">Cheatsheet</text>

  <!-- Subtitle -->
  <text x="100" y="450" font-family="Outfit, sans-serif" font-size="32" fill="#E4E8EF">The ultimate security guide for Starknet &amp; Cairo 1.x</text>

  <!-- Features -->
  <text x="100" y="520" font-family="JetBrains Mono, monospace" font-size="24" fill="#00FF88">14 Vulnerabilities | 7 Secure Patterns | 4 Security Tools</text>

  <!-- Decorative Grid -->
  <path d="M0 60H1200M0 120H1200M0 180H1200M0 240H1200M0 300H1200M0 360H1200M0 420H1200M0 480H1200M0 540H1200M0 600H1200" stroke="#00D4FF" stroke-opacity="0.05"/>
  <path d="M60 0V630M120 0V630M180 0V630M240 0V630M300 0V630M360 0V630M420 0V630M480 0V630M540 0V630M600 0V630" stroke="#00D4FF" stroke-opacity="0.05"/>
</svg>
